<svg width="21" height="39" viewBox="0 0 21 39" fill="none" xmlns="http://www.w3.org/2000/svg">
<path d="M20.6987 13.609L19.878 17.3141C19.6098 18.5341 18.3197 19.4896 16.9412 19.4896H14.1626V36.5624C14.1626 37.908 13.0349 39 11.5464 39H7.49789C6.00939 39 4.79847 37.9055 4.79847 36.5612V19.4896H3.44943C1.96092 19.4896 0.75 18.3964 0.75 17.0508V13.3933C0.75 12.0489 1.96092 10.9545 3.44943 10.9545H4.79847V7.31517C4.79847 3.30901 8.38698 0.0487515 12.8136 0.0146255C12.8418 0.0134067 12.8659 0 12.8954 0H18.2943C19.0385 0 19.5266 0.544798 19.5266 1.21757V7.31151C19.5266 7.9855 19.0385 8.53517 18.2943 8.53517H14.2444L14.2431 10.9545H18.2916C19.0506 10.9545 19.7506 11.2458 20.2092 11.7528C20.6692 12.2586 20.8475 12.9362 20.6987 13.609ZM12.945 13.3933C12.9262 13.3945 12.9115 13.403 12.8927 13.403C12.1471 13.4018 11.5423 12.8558 11.5437 12.183V12.1745L11.5464 7.31517C11.5464 6.64118 12.1498 6.09638 12.8954 6.09638H16.9439V2.4388H12.9477C12.9249 2.4388 12.9061 2.44976 12.882 2.44976C9.91303 2.44976 7.49789 4.63261 7.49789 7.31517V12.1928C7.49789 12.8667 6.8931 13.4128 6.14751 13.4128C6.1113 13.4128 6.08046 13.3957 6.04425 13.3933H3.44943V17.0508H6.14751C6.8931 17.0508 7.49789 17.5969 7.49789 18.2709C7.49789 18.3342 7.46839 18.3879 7.45766 18.4488V36.5624L11.5464 36.5612V18.283C11.5464 18.2782 11.5437 18.2745 11.5437 18.2709C11.5437 17.5969 12.1471 17.0508 12.8927 17.0508H16.9412C17.0391 17.0508 17.2134 16.9229 17.2308 16.8376L17.9939 13.3933H12.945Z" fill="white"/>
</svg>
