<svg width="143" height="39" viewBox="0 0 143 39" fill="none" xmlns="http://www.w3.org/2000/svg">
<path fill-rule="evenodd" clip-rule="evenodd" d="M36.9288 6.55519C37.4613 3.9422 34.9117 1.77074 32.4401 2.73208L2.14259 14.5159C-0.617611 15.5895 -0.740598 19.4749 1.94609 20.7231L8.54404 23.7887L11.6828 34.8474C11.8458 35.4218 12.2986 35.8666 12.8731 36.0165C13.4476 36.1662 14.0579 35.999 14.4776 35.5764L19.3124 30.7093L26.0852 35.8228C28.0512 37.307 30.8828 36.2259 31.3765 33.8025L36.9288 6.55519ZM3.34985 17.6614L33.6474 5.87759L28.0951 33.1251L20.1603 27.1342C19.4935 26.6307 18.5604 26.6975 17.971 27.2908L15.9002 29.3755L16.5224 25.9307L28.7141 13.6578C29.3075 13.0605 29.3702 12.1134 28.8609 11.4421C28.3515 10.7708 27.4275 10.5826 26.6989 11.0016L9.86175 20.6869L3.34985 17.6614ZM11.9147 23.3898L12.9303 26.9683L13.3202 24.8093C13.3812 24.4719 13.5429 24.1612 13.7838 23.9187L17.5019 20.176L11.9147 23.3898Z" fill="white"/>
<path fill-rule="evenodd" clip-rule="evenodd" d="M62 17.225C62 11.7645 62 9.03424 63.0627 6.9486C63.9974 5.11401 65.489 3.62245 67.3236 2.68769C69.4092 1.625 72.1395 1.625 77.6 1.625H82.15C87.6105 1.625 90.3408 1.625 92.4263 2.68769C94.261 3.62245 95.7526 5.11401 96.6873 6.9486C97.75 9.03424 97.75 11.7645 97.75 17.225V21.775C97.75 27.2355 97.75 29.9658 96.6873 32.0513C95.7526 33.886 94.261 35.3776 92.4263 36.3123C90.3408 37.375 87.6105 37.375 82.15 37.375H77.6C72.1395 37.375 69.4092 37.375 67.3236 36.3123C65.489 35.3776 63.9974 33.886 63.0627 32.0513C62 29.9658 62 27.2355 62 21.775V17.225ZM77.6 4.875H82.15C84.9339 4.875 86.8263 4.87753 88.2891 4.99704C89.7141 5.11345 90.4427 5.32446 90.951 5.58345C92.174 6.20664 93.1683 7.20101 93.7915 8.42407C94.0505 8.93236 94.2616 9.66102 94.378 11.0859C94.4974 12.5487 94.5 14.4411 94.5 17.225V21.775C94.5 24.5589 94.4974 26.4513 94.378 27.9141C94.2616 29.3391 94.0505 30.0677 93.7915 30.576C93.1683 31.799 92.174 32.7933 90.951 33.4165C90.4427 33.6755 89.7141 33.8866 88.2891 34.003C86.8263 34.1224 84.9339 34.125 82.15 34.125H77.6C74.8161 34.125 72.9237 34.1224 71.4609 34.003C70.036 33.8866 69.3074 33.6755 68.7991 33.4165C67.576 32.7933 66.5816 31.799 65.9585 30.576C65.6995 30.0677 65.4885 29.3391 65.372 27.9141C65.2525 26.4513 65.25 24.5589 65.25 21.775V17.225C65.25 14.4411 65.2525 12.5487 65.372 11.0859C65.4885 9.66102 65.6995 8.93236 65.9585 8.42407C66.5816 7.20101 67.576 6.20664 68.7991 5.58345C69.3074 5.32446 70.036 5.11345 71.4609 4.99704C72.9237 4.87753 74.8161 4.875 77.6 4.875ZM89.625 8.125C88.7275 8.125 88 8.85254 88 9.75C88 10.6475 88.7275 11.375 89.625 11.375C90.5225 11.375 91.25 10.6475 91.25 9.75C91.25 8.85254 90.5225 8.125 89.625 8.125ZM79.875 29.25C85.2598 29.25 89.625 24.8848 89.625 19.5C89.625 14.1152 85.2598 9.75 79.875 9.75C74.4902 9.75 70.125 14.1152 70.125 19.5C70.125 24.8848 74.4902 29.25 79.875 29.25ZM79.875 26C83.4648 26 86.375 23.0898 86.375 19.5C86.375 15.9101 83.4648 13 79.875 13C76.2851 13 73.375 15.9101 73.375 19.5C73.375 23.0898 76.2851 26 79.875 26Z" fill="white"/>
<path d="M142.699 13.609L141.878 17.3141C141.61 18.5341 140.32 19.4896 138.941 19.4896H136.163V36.5624C136.163 37.908 135.035 39 133.546 39H129.498C128.009 39 126.798 37.9055 126.798 36.5612V19.4896H125.449C123.961 19.4896 122.75 18.3964 122.75 17.0508V13.3933C122.75 12.0489 123.961 10.9545 125.449 10.9545H126.798V7.31517C126.798 3.30901 130.387 0.0487515 134.814 0.0146255C134.842 0.0134067 134.866 0 134.895 0H140.294C141.039 0 141.527 0.544798 141.527 1.21757V7.31151C141.527 7.9855 141.039 8.53517 140.294 8.53517H136.244L136.243 10.9545H140.292C141.051 10.9545 141.751 11.2458 142.209 11.7528C142.669 12.2586 142.848 12.9362 142.699 13.609ZM134.945 13.3933C134.926 13.3945 134.911 13.403 134.893 13.403C134.147 13.4018 133.542 12.8558 133.544 12.183V12.1745L133.546 7.31517C133.546 6.64118 134.15 6.09638 134.895 6.09638H138.944V2.4388H134.948C134.925 2.4388 134.906 2.44976 134.882 2.44976C131.913 2.44976 129.498 4.63261 129.498 7.31517V12.1928C129.498 12.8667 128.893 13.4128 128.148 13.4128C128.111 13.4128 128.08 13.3957 128.044 13.3933H125.449V17.0508H128.148C128.893 17.0508 129.498 17.5969 129.498 18.2709C129.498 18.3342 129.468 18.3879 129.458 18.4488V36.5624L133.546 36.5612V18.283C133.546 18.2782 133.544 18.2745 133.544 18.2709C133.544 17.5969 134.147 17.0508 134.893 17.0508H138.941C139.039 17.0508 139.213 16.9229 139.231 16.8376L139.994 13.3933H134.945Z" fill="white"/>
</svg>
