<svg width="36" height="37" viewBox="0 0 36 37" fill="none" xmlns="http://www.w3.org/2000/svg">
<path fill-rule="evenodd" clip-rule="evenodd" d="M0 16.225C0 10.7645 0 8.03424 1.06269 5.9486C1.99745 4.11401 3.48901 2.62245 5.3236 1.68769C7.40924 0.625 10.1395 0.625 15.6 0.625H20.15C25.6105 0.625 28.3408 0.625 30.4263 1.68769C32.261 2.62245 33.7526 4.11401 34.6873 5.9486C35.75 8.03424 35.75 10.7645 35.75 16.225V20.775C35.75 26.2355 35.75 28.9658 34.6873 31.0513C33.7526 32.886 32.261 34.3776 30.4263 35.3123C28.3408 36.375 25.6105 36.375 20.15 36.375H15.6C10.1395 36.375 7.40924 36.375 5.3236 35.3123C3.48901 34.3776 1.99745 32.886 1.06269 31.0513C0 28.9658 0 26.2355 0 20.775V16.225ZM15.6 3.875H20.15C22.9339 3.875 24.8263 3.87753 26.2891 3.99704C27.7141 4.11345 28.4427 4.32446 28.951 4.58345C30.174 5.20664 31.1683 6.20101 31.7915 7.42407C32.0505 7.93236 32.2616 8.66102 32.378 10.0859C32.4974 11.5487 32.5 13.4411 32.5 16.225V20.775C32.5 23.5589 32.4974 25.4513 32.378 26.9141C32.2616 28.3391 32.0505 29.0677 31.7915 29.576C31.1683 30.799 30.174 31.7933 28.951 32.4165C28.4427 32.6755 27.7141 32.8866 26.2891 33.003C24.8263 33.1224 22.9339 33.125 20.15 33.125H15.6C12.8161 33.125 10.9237 33.1224 9.46088 33.003C8.03602 32.8866 7.30736 32.6755 6.79907 32.4165C5.57601 31.7933 4.58164 30.799 3.95845 29.576C3.69946 29.0677 3.48845 28.3391 3.37204 26.9141C3.25253 25.4513 3.25 23.5589 3.25 20.775V16.225C3.25 13.4411 3.25253 11.5487 3.37204 10.0859C3.48845 8.66102 3.69946 7.93236 3.95845 7.42407C4.58164 6.20101 5.57601 5.20664 6.79907 4.58345C7.30736 4.32446 8.03602 4.11345 9.46088 3.99704C10.9237 3.87753 12.8161 3.875 15.6 3.875ZM27.625 7.125C26.7275 7.125 26 7.85254 26 8.75C26 9.64746 26.7275 10.375 27.625 10.375C28.5225 10.375 29.25 9.64746 29.25 8.75C29.25 7.85254 28.5225 7.125 27.625 7.125ZM17.875 28.25C23.2598 28.25 27.625 23.8848 27.625 18.5C27.625 13.1152 23.2598 8.75 17.875 8.75C12.4902 8.75 8.125 13.1152 8.125 18.5C8.125 23.8848 12.4902 28.25 17.875 28.25ZM17.875 25C21.4648 25 24.375 22.0898 24.375 18.5C24.375 14.9101 21.4648 12 17.875 12C14.2851 12 11.375 14.9101 11.375 18.5C11.375 22.0898 14.2851 25 17.875 25Z" fill="white"/>
</svg>
