<svg width="37" height="35" viewBox="0 0 37 35" fill="none" xmlns="http://www.w3.org/2000/svg">
<path fill-rule="evenodd" clip-rule="evenodd" d="M36.9288 4.55519C37.4613 1.9422 34.9117 -0.229257 32.4401 0.732081L2.14259 12.5159C-0.617611 13.5895 -0.740598 17.4749 1.94609 18.7231L8.54404 21.7887L11.6828 32.8474C11.8458 33.4218 12.2986 33.8666 12.8731 34.0165C13.4476 34.1662 14.0579 33.999 14.4776 33.5764L19.3124 28.7093L26.0852 33.8228C28.0512 35.307 30.8828 34.2259 31.3765 31.8025L36.9288 4.55519ZM3.34985 15.6614L33.6474 3.87759L28.0951 31.1251L20.1603 25.1342C19.4935 24.6307 18.5604 24.6975 17.971 25.2908L15.9002 27.3755L16.5224 23.9307L28.7141 11.6578C29.3075 11.0605 29.3702 10.1134 28.8609 9.44212C28.3515 8.77084 27.4275 8.58256 26.6989 9.00164L9.86175 18.6869L3.34985 15.6614ZM11.9147 21.3898L12.9303 24.9683L13.3202 22.8093C13.3812 22.4719 13.5429 22.1612 13.7838 21.9187L17.5019 18.176L11.9147 21.3898Z" fill="white"/>
</svg>
