<svg width="34" height="34" viewBox="0 0 34 34" fill="none" xmlns="http://www.w3.org/2000/svg">
<path d="M14.1581 0C6.35557 0 0 6.35557 0 14.1581C0 21.9607 6.35557 28.3162 14.1581 28.3162C17.5511 28.3162 20.6671 27.1114 23.1093 25.1113L31.5626 33.5647C31.6931 33.7006 31.8494 33.8091 32.0223 33.8838C32.1952 33.9585 32.3813 33.998 32.5696 33.9999C32.758 34.0018 32.9448 33.9662 33.1192 33.895C33.2936 33.8238 33.4521 33.7185 33.5853 33.5853C33.7185 33.4521 33.8238 33.2936 33.895 33.1192C33.9662 32.9448 34.0018 32.758 33.9999 32.5696C33.998 32.3813 33.9585 32.1952 33.8838 32.0223C33.8091 31.8494 33.7006 31.6931 33.5647 31.5626L25.1113 23.1093C27.1114 20.6671 28.3162 17.5511 28.3162 14.1581C28.3162 6.35557 21.9607 0 14.1581 0ZM14.1581 2.83162C20.4303 2.83162 25.4846 7.8859 25.4846 14.1581C25.4846 20.4303 20.4303 25.4846 14.1581 25.4846C7.8859 25.4846 2.83162 20.4303 2.83162 14.1581C2.83162 7.8859 7.8859 2.83162 14.1581 2.83162Z" fill="#27445D"/>
</svg>
