<svg width="45" height="45" viewBox="0 0 45 45" fill="none" xmlns="http://www.w3.org/2000/svg">
<path d="M18.7387 0C8.41179 0 0 8.41179 0 18.7387C0 29.0656 8.41179 37.4774 18.7387 37.4774C23.2294 37.4774 27.3536 35.8827 30.5858 33.2355L41.7741 44.4239C41.9468 44.6037 42.1536 44.7473 42.3824 44.8462C42.6113 44.9451 42.8576 44.9974 43.1069 44.9999C43.3562 45.0024 43.6035 44.9552 43.8343 44.861C44.0651 44.7667 44.2748 44.6274 44.4511 44.4511C44.6274 44.2748 44.7667 44.0651 44.861 43.8343C44.9552 43.6035 45.0024 43.3562 44.9999 43.1069C44.9974 42.8576 44.9451 42.6113 44.8462 42.3824C44.7473 42.1536 44.6037 41.9468 44.4239 41.7741L33.2355 30.5858C35.8827 27.3536 37.4774 23.2294 37.4774 18.7387C37.4774 8.41179 29.0656 0 18.7387 0ZM18.7387 3.74774C27.0402 3.74774 33.7296 10.4372 33.7296 18.7387C33.7296 27.0402 27.0402 33.7296 18.7387 33.7296C10.4372 33.7296 3.74774 27.0402 3.74774 18.7387C3.74774 10.4372 10.4372 3.74774 18.7387 3.74774Z" fill="white"/>
</svg>
